<svg xmlns="http://www.w3.org/2000/svg" viewBox="0 0 1420 506" width="1420" height="506">
  <!-- Gradient for the Doxis colorful ring -->
  <linearGradient id="A" gradientUnits="userSpaceOnUse" x1="299.228" y1="43.604" x2="299.228" y2="427.419">
    <stop offset="0" stop-color="#0083cb"/>
    <stop offset=".096" stop-color="#0082c8"/>
    <stop offset=".282" stop-color="#397dc0"/>
    <stop offset=".54" stop-color="#8f6dae"/>
    <stop offset=".856" stop-color="#ce3a8d"/>
    <stop offset="1" stop-color="#e6007e"/>
  </linearGradient>

  <!-- Colorful circular gradient ring -->
  <path d="M586.1 243.4c-.1 4.2-.3 8.3-.5 12.5-2.6 44.9-17.3 87-44.4 122.9-22.7 30.1-52.4 54.3-85.7 71.8-41.9 22-88.7 33.3-135.6 37.3-14.3 1.2-28.7 1.8-43.1 1.7C166.9 489.2 36.1 462.2 15 289-3.9 133.9 77.5 47.9 190.9 33.3c66.9-8.6 165.9-15.4 262.5 4.9 41.8 8.8 81.8 28.8 105.7 65.4 20.8 31.9 25 68.4 26.6 105.5.4 11.5.7 22.9.4 34.3z" fill="url(#A)"/>
  
  <!-- White internal mask shape -->
  <path d="M158.6 164.9c8.2-29 38.2-46.7 68.3-48.1 37.7-1.8 74.3 4.7 110.4 13.9 28.5 7.2 55.7 5.4 82.7-5.9 23.5-9.8 47.3-18.7 72.7-22.2 8.1-1.1 16.5-1.6 24.7-1.2 14.7.8 25.4 9.1 31.9 21.6 31.3 60.6 20 149.2 12.2 176-7.5 25.5-21.9 49-39.3 68.8-39.9 45.6-90.8 71.4-149.8 82.6-38.8 7.4-77.4 6.5-115-6.1-41.6-13.9-75.1-38.5-93.7-79.2-6.9-15.1-9.7-32.4-12.7-49-2.6-15.2-11.1-85.2 7.6-151.2zm110.3 106l-15.4 14.5-14.7 13.9c12.6 30.6 50.6 30 63.4-10.8 5.2-16.6 3.8-34.9-5.3-49.7-9.4-15.1-22.8-21.4-36-17.3-11.6 3.6-23.6 17.8-24.6 29.3l32.6 20.1zm190.4-6.3c3.2 4.6 5.7 9.4 9.4 13 7.4 7.4 19.4 6.8 27.1-.4 3.1-2.9 5.8-6.5 7.9-10.2 7.3-12.9 8.2-26.9 6.2-41.3-1.4-9.6-4.9-18.4-12.1-25.2-6.5-6.2-14.9-7.4-22.3-3.1-8.8 5.2-13.5 13.4-16.6 23.3l24.6 18.7-24.2 25.2zM434 316.9c-1.6-2.7-5.5-3.1-7.8-1-1.6 1.4-3.1 2.8-4.6 4.3-11.4 11.7-24.2 20-41.3 19.8-10.2-.1-19.1-4.1-27.6-9.2-4.2-2.5-9.2-.9-10.8 3.7-1.9 5.6-.1 9.2 6.4 13.3 32.2 19.8 65.4 5.4 84.8-20.9 2.6-3.5 3-6.6.9-10z" fill="#fff"/>
  
  <!-- Black contrast details -->
  <path d="M268.9 270.9l-32.7-20.1c1-11.5 13-25.7 24.6-29.3 13.2-4.1 26.7 2.2 36 17.3 9.1 14.8 10.5 33.1 5.3 49.7-12.8 40.8-50.7 41.4-63.4 10.8l14.7-13.9 15.5-14.5zm190.4-6.3l24.2-25.2-24.6-18.7c3.1-9.9 7.7-18.1 16.6-23.3 7.4-4.4 15.8-3.1 22.3 3.1 7.2 6.9 10.7 15.6 12.1 25.2 2 14.3 1.1 28.4-6.2 41.3-2.1 3.7-4.8 7.3-7.9 10.2-7.6 7.2-19.6 7.7-27.1.4-3.7-3.7-6.2-8.5-9.4-13zm-33 51.3c2.3-2 6.1-1.7 7.7 1 2.1 3.4 1.8 6.5-.8 10.1-19.4 26.3-52.6 40.7-84.8 20.9-6.6-4-8.3-7.6-6.4-13.3 1.6-4.6 6.6-6.2 10.8-3.7 8.6 5 17.4 9.1 27.6 9.2 17.1.2 29.9-8.2 41.3-19.8 1.4-1.6 3-3 4.6-4.4z" fill="#020202"/>

  <!-- Typography: Clean capitalized "Doxis" text in a bold sans-serif font, matching other logos -->
  <text x="660" y="365" font-family="system-ui, -apple-system, 'Inter', 'Segoe UI', sans-serif" font-weight="800" font-size="305" fill="#0f172a" letter-spacing="-0.03em">Doxis</text>
</svg>
