<svg xmlns="http://www.w3.org/2000/svg" width="179.863" height="42.301" viewBox="4.133 3.783 179.863 42.301"><path fill="#FFF" d="M74.318 15.461v3.431h-6.919v4.689h6.49v3.374h-6.49v5.004h7.348v3.459H62.939V15.461h11.379zm7.75 0v16.525h6.233v3.432H77.522V15.461h4.546zm23.79 9.95c0 6.491-3.116 10.378-8.52 10.378s-8.521-3.916-8.521-10.178c0-6.29 3.145-10.522 8.578-10.522 5.375 0 8.463 4.118 8.463 10.322zm-12.38.143c0 4.26 1.458 6.805 3.86 6.805 2.344 0 3.86-2.487 3.86-6.776 0-4.66-1.487-7.148-3.86-7.148s-3.86 2.516-3.86 7.119zM5.189 4.842v20.889L26.065 4.842H5.189zm26.436-1.059L4.133 31.279v14.805h42.301V3.783H31.625zm91.59 24.43c0 4.461-3.088 7.549-7.49 7.549-4.317 0-7.492-3.145-7.492-7.549 0-4.574 3.117-7.72 7.578-7.72 4.316 0 7.404 3.202 7.404 7.72zm-12.094 0c0 3.201 1.887 5.291 4.66 5.291 2.66 0 4.604-2.117 4.604-5.291 0-3.26-1.943-5.461-4.689-5.461-2.659 0-4.575 2.23-4.575 5.461zm32.854-12.094a6.227 6.227 0 0 0-1.399-.171c-1.802 0-2.459 1.058-2.459 3.545v1.43h3.918v2.145h-3.918v12.351h-2.688V23.067h-6.775v12.351h-2.688V23.067h-3.461v-2.145h3.461v-1.373c0-3.488 1.199-5.861 4.746-5.861.715 0 1.287.057 2.002.229l-.201 2.201a6.229 6.229 0 0 0-1.4-.171c-1.803 0-2.459 1.058-2.459 3.545v1.43h6.775v-1.373c0-3.488 1.201-5.861 4.746-5.861.715 0 1.287.057 2.002.229l-.202 2.202zm5.548 2.087h-3.031v-3.002h3.031v3.002zm-.144 17.212h-2.744V20.836h2.744v14.582zm14.414-11.837c-.857-.429-1.717-.6-2.717-.6-2.916 0-4.918 2.03-4.918 5.06 0 3.088 1.973 5.232 4.859 5.232 1.059 0 1.918-.172 3.03-.715l.229 2.432c-1.027.428-2.285.629-3.572.629-4.461 0-7.436-3.002-7.436-7.491 0-4.375 3.002-7.492 7.604-7.492 1.088 0 2.114.143 3.088.543l-.167 2.402zm5.232 5.204c.115 2.945 2.117 4.689 5.061 4.689 1.688 0 2.945-.4 4.262-1.086l.084 2.485c-1.313.603-2.771.887-4.518.887-4.859 0-7.633-2.944-7.633-7.747 0-4.604 2.803-7.521 6.947-7.521 3.832 0 6.262 2.316 6.262 7.234 0 .285-.027.742-.057 1.058l-10.408.001zm7.805-2.087c0-2.802-1.543-4.146-3.688-4.146-2.146 0-3.83 1.543-4.06 4.146h7.748zm7.166-4.425a1.59 1.59 0 0 1-1.573 1.607h-.017a1.599 1.599 0 0 1-1.607-1.593v-.024c0-.88.717-1.579 1.635-1.579.853.001 1.562.726 1.562 1.589zm-2.933 0c0 .744.599 1.344 1.332 1.344.738 0 1.338-.601 1.338-1.354 0-.727-.608-1.316-1.354-1.316-.719 0-1.316.61-1.316 1.326zm.753-.943h.471c.438 0 .727.108.727.48 0 .209-.135.373-.391.418v.018c.137.045.203.146.256.264l.299.635h-.381l-.246-.553c-.074-.164-.145-.228-.371-.228h-.037v.781h-.326V21.33h-.001zm.327.753h.082c.291 0 .447-.063.447-.235 0-.201-.156-.236-.447-.236h-.082v.471z"/></svg>