<?xml version="1.0" encoding="UTF-8"?>
<svg id="Calque_1" xmlns="http://www.w3.org/2000/svg" xmlns:xlink="http://www.w3.org/1999/xlink" version="1.1" viewBox="0 0 88 37.31">
  <!-- Generator: Adobe Illustrator 30.2.1, SVG Export Plug-In . SVG Version: 2.1.1 Build 1)  -->
  <defs>
    <style>
      .st0 {
        mask: url(#mask);
      }

      .st1 {
        fill: #fff;
      }

      .st1, .st2, .st3 {
        fill-rule: evenodd;
      }

      .st2 {
        fill: url(#Dégradé_sans_nom_5);
      }

      .st3 {
        fill: #07052a;
      }
    </style>
    <linearGradient id="Dégradé_sans_nom_5" data-name="Dégradé sans nom 5" x1="-374.29" y1="309.26" x2="-374.02" y2="309.26" gradientTransform="translate(87232 12401.72) scale(233 -40)" gradientUnits="userSpaceOnUse">
      <stop offset="0" stop-color="#00bdff"/>
      <stop offset=".68" stop-color="#0064ff"/>
      <stop offset="1" stop-color="#0032d1"/>
    </linearGradient>
    <mask id="mask" x="73.41" y="0" width="11.59" height="20.63" maskUnits="userSpaceOnUse">
      <g id="mask-2">
        <polygon id="path-1" class="st1" points="73.41 0 85 0 85 20.63 73.41 20.63 73.41 0"/>
      </g>
    </mask>
  </defs>
  <path id="Combined-Shape" class="st2" d="M40,35.92v-6.65h1.69v6.65h-1.69ZM40,27.16l1.69-.32v1.43h-1.69v-1.11ZM36.48,27.17l1.71-.31v6.62c0,.59.22.86.76.86v1.63c-1.51,0-2.47-.78-2.47-2.34v-6.46ZM50.81,29.27l1.68-.31v.64c.44-.4,1.32-.47,1.82-.47,2.2,0,2.88,1.03,2.88,2.76v4.04h-1.67v-4.14c0-.85-.53-1.37-1.47-1.37s-1.55.37-1.55,1.22v4.28h-1.69v-6.65ZM47.91,29.27l1.7-.31v6.96h-1.69s0-.54,0-.54c-.29.21-.83.67-2.06.67-.93,0-1.72-.33-2.36-.99-.62-.67-.93-1.49-.93-2.47s.32-1.78.93-2.44c.63-.67,1.42-1,2.36-1,.79,0,1.55.22,2.06.56v-.44ZM44.73,33.99c.37.39.82.58,1.36.58s1.02-.19,1.39-.58c.39-.38.58-.85.58-1.4s-.19-1.02-.58-1.41c-.37-.38-.84-.57-1.39-.57s-.99.19-1.36.57c-.37.39-.55.86-.55,1.41s.18,1.02.55,1.4ZM58.18,31.1c0-1.3,1.05-2.07,2.66-2.07s2.31.61,2.31.61v1.41s-.98-.62-2.35-.62c-.65,0-1.09.26-1.09.68,0,.96,3.9.34,3.9,2.83,0,1.34-1.22,2.13-2.95,2.13-1.49,0-2.29-.56-2.29-.56v-1.46s1.02.64,2.29.64c.81,0,1.44-.11,1.44-.62,0-1.07-3.93-.42-3.93-2.95ZM28.63,32.48c0-1.55,1.12-3.51,3.6-3.51,2.9,0,3.31,2.51,3.31,3.5,0,.22-.03.66-.03.66h-5.13c0,.22.11,1.6,2.1,1.6,1.15,0,2.15-.41,2.47-.64l.04-.03v1.41h-.01c-.56.34-1.38.62-2.49.62-2.28,0-3.85-1.22-3.85-3.61ZM32.23,30.44c-1.12,0-1.85.65-1.85,1.52h3.58c-.01-.84-.84-1.52-1.73-1.52ZM26.58,29.25h2.08l-2.62,3.25,2.79,3.45h-2.08l-1.87-2.31-1.86,2.3h-2.08l2.78-3.44-2.61-3.24h2.08l1.69,2.1,1.7-2.11ZM70.47,25.93c.15,0,.3.06.41.17l8.65,8.68,3.38-3.39-3.33-3.34-2.91,2.92-1.17-1.17,3.68-3.69c.11-.11.25-.17.41-.17s.3.06.41.17l4.86,4.88c.22.22.22.59,0,.81l-4.91,4.92c-.11.11-.25.17-.41.17h0c-.15,0-.3-.06-.41-.17l-8.65-8.68-3.38,3.39,3.38,3.39,2.89-2.9,1.17,1.17-3.65,3.66c-.11.11-.25.17-.41.17s-.3-.06-.41-.17l-4.91-4.92c-.11-.11-.17-.25-.17-.41s.06-.3.17-.41l4.91-4.92c.11-.11.25-.17.41-.17Z"/>
  <g id="Maarch">
    <g id="Group-14">
      <path id="Fill-1" class="st3" d="M13.04,16.72L6.83,5.67v13.98c0,.54-.44.98-.98.98s-.98-.44-.98-.98V1.95c0-.26.12-.5.3-.67.19-.18.44-.27.69-.26.38,0,.72.2.89.54l7.19,12.87L21.15,1.55c.17-.33.51-.54.88-.54.53,0,.96.41.98.94v17.7c0,.54-.44.98-.98.98s-.98-.44-.98-.98V5.67l-6.23,11.05c-.17.33-.52.54-.89.54s-.72-.21-.89-.54"/>
      <path id="Fill-3" class="st3" d="M28.55,10.18c-.19.24-.48.39-.8.39-.48.01-.88-.36-.89-.82,0-.17.05-.34.15-.48.86-1.24,2.51-2.23,5.09-2.23,3.56,0,5.52,1.92,5.52,4.81v7.76c-.03.49-.44.87-.95.87s-.93-.38-.95-.87v-1.02c-.77,1.33-2.55,2.04-4.39,2.04-3.24,0-5.3-1.44-5.3-4.04s2.05-3.98,5.37-3.98h4.32v-.76c0-1.92-1.38-3.11-3.62-3.11-1.62,0-2.61.45-3.56,1.44M35.72,15.38v-1.19h-4.32c-2,0-3.37.76-3.37,2.4,0,1.47,1.1,2.4,3.49,2.4,2.15,0,4.2-1.2,4.2-3.61"/>
      <path id="Fill-5" class="st3" d="M41.16,10.18c-.19.25-.49.39-.81.39-.48.01-.88-.36-.89-.82,0-.17.05-.34.15-.48.86-1.24,2.52-2.23,5.09-2.23,3.56,0,5.52,1.92,5.52,4.81v7.76c-.03.49-.44.87-.95.87s-.93-.38-.95-.87v-1.02c-.77,1.33-2.55,2.04-4.39,2.04-3.24,0-5.3-1.44-5.3-4.04s2.05-3.98,5.36-3.98h4.33v-.76c0-1.92-1.38-3.11-3.62-3.11-1.63,0-2.6.45-3.56,1.44M48.33,15.38v-1.19h-4.32c-2,0-3.37.76-3.37,2.4,0,1.47,1.1,2.4,3.49,2.4,2.15,0,4.2-1.2,4.2-3.61"/>
      <path id="Fill-7" class="st3" d="M54.69,9.34c.61-1.32,2.12-2.29,4.22-2.29.5,0,.9.4.9.89s-.4.89-.9.89c-2.79,0-4.22,1.83-4.22,4.47v6.42c-.03.51-.45.91-.97.91s-.94-.4-.97-.91v-11.64c.03-.51.45-.91.97-.91s.94.4.97.91v1.26Z"/>
      <path id="Fill-9" class="st3" d="M66.98,7.04c2.67,0,4.14,1.33,4.62,1.95.22.25.27.6.13.89-.14.3-.45.48-.79.46-.28,0-.54-.12-.72-.33-.45-.48-1.26-1.33-3.24-1.33-2.75,0-4.22,1.66-4.22,5.13s1.46,5.16,4.22,5.16c1.74,0,2.79-.74,3.48-1.2.16-.13.36-.2.57-.2.47-.01.86.35.87.82,0,.28-.15.55-.39.71-1.28,1.01-2.88,1.55-4.53,1.52-3.86,0-6.17-2.16-6.17-6.8s2.31-6.77,6.17-6.77"/>
      <g id="Group-13">
        <g class="st0">
          <path id="Fill-11" class="st3" d="M85,12.05v7.66c-.03.51-.45.91-.97.91s-.95-.4-.97-.91v-7.27c0-2.27-.7-3.82-3.65-3.82s-4.05,1.71-4.05,4.01v7.08c-.03.51-.45.91-.97.91s-.95-.4-.97-.91V.91c.03-.51.45-.91.97-.91s.95.4.97.91v8.07c.59-1.09,2.07-2.01,4.05-2.01,4.68,0,5.6,2.64,5.6,5.08"/>
        </g>
      </g>
    </g>
  </g>
</svg>