<?xml version="1.0" encoding="utf-8"?>
<svg viewBox="0 0 726.488 132.088" xmlns="http://www.w3.org/2000/svg">
  <g>
    <path d="M 132.088 132.088 L 99.066 132.088 L 99.066 33.022 L 33.022 33.022 L 33.022 132.088 L 0 132.088 L 0 0 L 99.066 0 L 132.088 33.022 Z" style="stroke-width: 2px; vector-effect: non-scaling-stroke; fill: rgb(0, 103, 255);"/>
    <path d="M 247.665 0 L 280.687 0 L 280.687 132.088 L 181.621 132.088 L 148.599 99.066 L 148.599 0 L 181.621 0 L 181.621 99.066 L 247.665 99.066 Z" style="stroke-width: 2px; vector-effect: non-scaling-stroke; fill: rgb(0, 103, 255);"/>
    <path d="M 297.198 0 L 330.22 0 L 363.242 33.022 L 396.264 0 L 429.286 0 L 429.286 33.022 L 396.264 66.044 L 429.286 99.066 L 429.286 132.088 L 396.264 132.088 L 363.242 99.066 L 330.22 132.088 L 297.198 132.088 L 297.198 99.066 L 330.22 66.044 L 297.198 33.022 Z" style="stroke-width: 2px; vector-effect: non-scaling-stroke; fill: rgb(31, 76, 191);"/>
    <path d="M 660.443 132.089 L 627.421 132.089 L 594.399 99.067 L 594.399 0.001 L 627.422 0.001 L 627.422 0 L 693.466 0 L 726.488 33.022 L 726.488 132.089 L 660.444 132.089 L 660.444 132.088 L 660.443 132.088 Z M 627.422 99.067 L 627.422 99.066 L 660.444 99.066 L 660.444 99.067 L 693.466 99.067 L 693.466 33.022 L 643.933 33.022 L 643.933 33.023 L 627.421 33.023 L 627.421 99.067 Z" style="stroke-width: 2px; vector-effect: non-scaling-stroke; fill: rgb(0, 103, 255);"/>
    <path d="M 445.797 82.556 L 445.798 82.556 L 445.798 66.045 L 445.797 66.044 L 445.798 66.043 L 445.798 39.699 L 445.797 39.699 L 445.797 20.543 L 445.801 20.543 L 445.801 0.001 L 445.797 0 L 577.887 0 L 577.887 33.022 L 478.819 33.022 L 478.819 51.989 L 577.887 51.989 L 577.887 85.011 L 478.819 85.011 L 478.819 99.067 L 577.887 99.067 L 577.887 132.089 L 445.797 132.089 L 445.801 132.088 L 445.801 101.712 L 445.797 101.712 Z" style="stroke-width: 2px; vector-effect: non-scaling-stroke; fill: rgb(0, 103, 255);"/>
  </g>
</svg>