<?xml version="1.0" encoding="UTF-8"?> <svg xmlns="http://www.w3.org/2000/svg" width="200" height="67" viewBox="0 0 200 67" fill="none"><path d="M26.252 10.2263C27.0367 10.2263 27.7236 10.5218 28.2432 11.0807L28.2451 11.0827C28.7552 11.6341 29.0136 12.3283 29.0137 13.1452V44.9997C29.0137 48.9042 28.2879 52.3002 26.8564 55.0934C25.4116 57.9092 23.3745 60.0789 20.8027 61.5436C18.2436 62.9991 15.3266 63.737 12.1309 63.737C10.2 63.737 8.36671 63.5101 6.68262 63.0622C4.98102 62.6093 3.54233 61.9905 2.40625 61.2243C1.25427 60.4548 0.668983 59.5392 0.668945 58.5065C0.668945 58.3837 0.687571 58.1903 0.822266 57.613L0.830078 57.5827C1.0083 56.942 1.32316 56.4452 1.76562 56.1052C2.20731 55.7627 2.70068 55.5876 3.22852 55.5876C3.62085 55.5876 4.01154 55.6914 4.38965 55.8952L4.41504 55.9099C7.13977 57.5182 9.7578 58.3327 12.1973 58.3327C15.7017 58.3326 18.395 57.1896 20.4287 54.8376C22.4608 52.4855 23.4912 49.1988 23.4912 45.072V44.9763C22.4814 46.1886 21.2488 47.2243 19.8057 48.069C17.6005 49.3598 15.176 50.0134 12.5986 50.0134C8.49505 50.0134 5.32434 48.6549 3.17676 45.9753C1.06853 43.3474 0 39.762 0 35.321V13.1452C5.12292e-05 12.3266 0.2584 11.6323 0.768555 11.0817C1.28724 10.5219 1.97603 10.2263 2.76074 10.2263C3.54548 10.2263 4.23242 10.5218 4.75195 11.0807C5.26307 11.6338 5.52143 12.3281 5.52148 13.1452V34.6706C5.52152 37.9492 6.17705 40.4418 7.46875 42.0778C8.73539 43.6836 10.6982 44.4636 13.4697 44.4636C15.1545 44.4635 16.7931 44.0007 18.3398 43.0876C19.9001 42.1676 21.1651 40.9405 22.0996 39.4382C23.0231 37.9535 23.4912 36.3499 23.4912 34.6706V13.1452C23.4913 12.3266 23.7496 11.6323 24.2598 11.0817C24.7784 10.5219 25.4673 10.2263 26.252 10.2263Z" fill="#14354E"></path><path d="M50.1465 10.0087C53.4485 10.0088 56.4909 10.9003 59.1914 12.6591C61.8809 14.4121 64.0179 16.8437 65.543 19.8867C67.0614 22.9163 67.831 26.3345 67.8311 30.0468C67.8311 33.7592 67.0614 37.179 65.543 40.2079C64.017 43.2525 61.8778 45.6726 59.1865 47.4013C56.4868 49.1343 53.4451 50.0117 50.1455 50.0117C46.8454 50.0115 43.8041 49.1332 41.1055 47.4013C38.4141 45.6742 36.2749 43.2543 34.748 40.2079C33.2296 37.1799 32.46 33.7609 32.46 30.0468C32.46 26.3329 33.2297 22.9163 34.748 19.8867C36.274 16.8428 38.4118 14.4113 41.1006 12.6591C43.8003 10.9003 46.8444 10.0087 50.1465 10.0087ZM50.1465 15.5576C47.9019 15.5576 45.836 16.1835 44.0088 17.416C42.165 18.6601 40.6847 20.3973 39.6113 22.5781C38.5305 24.7746 37.9825 27.2871 37.9824 30.0468C37.9824 32.8066 38.5297 35.2476 39.6113 37.4443C40.6855 39.6267 42.1658 41.3639 44.0088 42.6064C45.8351 43.8388 47.9003 44.4638 50.1475 44.4638C52.3944 44.4638 54.475 43.849 56.3271 42.6367C58.1869 41.4184 59.6631 39.6972 60.7139 37.5214C61.7747 35.3222 62.3125 32.8067 62.3125 30.0468C62.3125 27.2871 61.7746 24.7721 60.7139 22.5722C59.6631 20.3956 58.1853 18.6621 56.3223 17.4179C54.4718 16.1839 52.3946 15.5576 50.1484 15.5576H50.1465Z" fill="#14354E"></path><path d="M88.7812 10.0087C92.0834 10.0087 95.1256 10.9003 97.8262 12.6591C100.516 14.4121 102.654 16.8436 104.179 19.8867C105.697 22.9163 106.467 26.3346 106.467 30.0468C106.467 33.7592 105.697 37.179 104.179 40.2079C102.653 43.2524 100.513 45.6726 97.8223 47.4013C95.1227 49.1341 92.0806 50.0115 88.7812 50.0117C85.4808 50.0116 82.4391 49.1334 79.7402 47.4013C77.049 45.6743 74.9106 43.2542 73.3838 40.2079C71.8653 37.1799 71.0957 33.7609 71.0957 30.0468C71.0957 26.3329 71.8654 22.9163 73.3838 19.8867C74.9098 16.8428 77.0475 14.4113 79.7363 12.6591C82.436 10.9004 85.4793 10.0087 88.7812 10.0087ZM88.7812 15.5576C86.5367 15.5576 84.4707 16.1835 82.6436 17.416C80.7998 18.6601 79.3204 20.3974 78.2471 22.5781C77.1662 24.7747 76.6172 27.2871 76.6172 30.0468C76.6172 32.8067 77.1653 35.2476 78.2471 37.4443C79.3212 39.6266 80.8007 41.3639 82.6436 42.6064C84.4699 43.8388 86.5351 44.4638 88.7822 44.4638C91.0292 44.4638 93.1097 43.8489 94.9619 42.6367C96.8217 41.4184 98.2979 39.6972 99.3486 37.5214C100.409 35.3222 100.947 32.8067 100.947 30.0468C100.947 27.2871 100.409 24.7722 99.3486 22.5722C98.2978 20.3956 96.8202 18.6621 94.957 17.4179C93.1065 16.1838 91.0294 15.5576 88.7832 15.5576H88.7812Z" fill="#14354E"></path><path d="M131.415 10.3698C132.172 10.3698 132.836 10.6888 133.335 11.2936C133.804 11.8642 134.043 12.5352 134.043 13.2887C134.043 13.9679 133.82 14.6442 133.38 15.2975L114.288 43.7408H130.947C131.73 43.7408 132.407 44.0244 132.905 44.5592L132.907 44.5612C133.395 45.0892 133.643 45.7467 133.643 46.5153C133.643 47.2838 133.395 47.944 132.907 48.4703C132.404 49.0135 131.744 49.2897 130.948 49.2897H130.946V49.2906H109.194C108.383 49.2906 107.692 48.9522 107.194 48.3131C106.734 47.7249 106.501 47.0955 106.501 46.443C106.501 45.6536 106.753 44.9443 107.25 44.3336L126.258 15.9196H110.868C110.124 15.9196 109.481 15.6489 108.958 15.1158C108.438 14.5886 108.174 13.9246 108.174 13.1442C108.174 12.3639 108.439 11.7021 108.959 11.1725C109.476 10.647 110.136 10.3698 110.868 10.3698H131.415Z" fill="#14354E"></path><path d="M155.43 60.0545C154.665 60.0545 154.044 59.4342 154.044 58.669V18.1416L146.589 18.9248C146.208 18.9647 145.932 19.3056 145.972 19.6861L150.841 66.0173C150.881 66.3978 151.222 66.6738 151.602 66.6339L182.948 63.3393C183.329 63.2993 183.605 62.9585 183.565 62.578L183.299 60.0545H155.43Z" fill="#00BFA5"></path><path d="M167.909 0.655401C167.528 0.615414 167.187 0.891405 167.147 1.27186L166.52 7.23481H190.412C191.177 7.23481 191.797 7.85509 191.797 8.62024V51.4007L194.24 51.6573C194.62 51.6973 194.961 51.4213 195.001 51.0408L199.871 4.71128C199.911 4.33079 199.635 3.98992 199.255 3.94993L167.909 0.655401Z" fill="#006AFF"></path><path d="M157.162 9.65932C156.779 9.65932 156.469 9.96946 156.469 10.352V56.9372C156.469 57.3198 156.779 57.6299 157.162 57.6299H188.68C189.063 57.6299 189.373 57.3198 189.373 56.9372V10.352C189.373 9.96946 189.063 9.65932 188.68 9.65932H157.162Z" fill="#E0185E"></path><g clip-path="url(#clip0_1125_7912)"><path d="M173.815 18.0388L172.932 17.45L172.032 18.0388C171.651 18.2985 162.593 24.4118 162.593 33.8673C162.593 40.9157 167.615 43.4961 171.287 44.0676V48.4837C171.287 49.3669 171.997 50.0942 172.88 50.0942C173.763 50.0942 174.491 49.3669 174.491 48.4837V44.0676C178.162 43.4961 183.202 40.933 183.219 33.902C183.236 24.4464 174.214 18.2985 173.815 18.0388ZM178.456 39.5303C177.123 40.7599 175.495 41.2621 174.456 41.4699V29.4859C174.473 28.6546 173.763 27.9792 172.88 27.9792C171.997 27.9792 171.287 28.6373 171.287 29.4859V41.4699C170.23 41.2621 168.62 40.7425 167.321 39.5303C165.901 38.2141 165.174 36.3092 165.174 33.902C165.174 31.4948 166.507 27.3212 169.139 24.2039C170.629 22.4375 172.118 21.2079 172.897 20.6191C173.677 21.2079 175.166 22.4548 176.655 24.2213C179.288 27.3558 180.604 30.6116 180.604 33.9366C180.604 37.2616 179.877 38.2314 178.439 39.5476L178.456 39.5303Z" fill="#FEFEFE"></path></g><defs><clipPath id="clip0_1125_7912"><rect width="20.6256" height="32.6443" fill="white" transform="translate(162.593 17.45)"></rect></clipPath></defs></svg> 